#!OML:ASF H:\Terrain\Walking\May29\JustinRory\Justin.ASF
:FULLY-SPECIFIED
:DEGREES
74
root 6.34402 12.4309 7.28557 -46.0228 -67.6707 41.0047 
lowerback 55.2848 -9.2104 4.98807 
upperback 9.22382 -9.30941 2.86645 
thorax -10.4499 -4.97926 5.30848 
lowerneck -16.4034 14.9796 -15.2933 
upperneck 17.6481 27.0852 -15.5302 
head 8.83584 10.0515 0.320739 
rclavicle 2.06736e-14 -3.26007e-14 
rhumerus -36.3842 23.1483 -97.2914 
rradius 38.5824 
rwrist -25.7665 
rhand -19.5771 19.1469 
rfingers 7.12502 
rthumb 6.74809 -10.7255 
lclavicle 2.06736e-14 -3.26007e-14 
lhumerus -54.4016 21.376 67.9918 
lradius 52.8787 
lwrist -2.65742 
lhand -7.21762 36.7524 
lfingers 7.12502 
lthumb 18.6615 65.8772 
rfemur -71.7434 -10.2838 19.3573 
rtibia 88.714 
rfoot -9.05394 -1.36029 
rtoes 27.9846 
lfemur -54.2631 0.664583 -5.44407 
ltibia 68.195 
lfoot -6.11017 -24.2996 
ltoes -19.3056 
75
root 6.41533 12.4302 7.50679 -47.0782 -67.9904 42.0238 
lowerback 54.7424 -9.41306 5.63125 
upperback 9.53417 -9.30531 2.73253 
thorax -10.0972 -4.99457 4.82301 
lowerneck -16.2773 14.6737 -14.3497 
upperneck 18.0837 26.547 -15.4691 
head 9.05478 9.80214 0.196784 
rclavicle -4.45278e-14 5.40694e-14 
rhumerus -36.2221 23.147 -98.0498 
rradius 37.9453 
rwrist -25.4854 
rhand -20.2412 18.9836 
rfingers 7.12502 
rthumb 6.10692 -10.9083 
lclavicle -4.45278e-14 5.40694e-14 
lhumerus -53.17 20.3375 69.2751 
lradius 53.0274 
lwrist -2.40384 
lhand -6.65856 36.5336 
lfingers 7.12502 
lthumb 19.1992 65.606 
rfemur -72.1063 -11.0096 18.7115 
rtibia 88.9514 
rfoot -8.80418 -0.329038 
rtoes 27.6456 
lfemur -54.5174 1.24486 -6.51909 
ltibia 68.99 
lfoot -6.66142 -24.3524 
ltoes -15.0839 
76
root 6.49914 12.427 7.71953 -48.1726 -68.4252 43.1077 
lowerback 54.2876 -9.62038 6.43556 
upperback 9.81772 -9.24377 2.37876 
thorax -9.82232 -4.96502 4.01227 
lowerneck -15.9836 14.4625 -12.6274 
upperneck 18.1715 25.965 -15.8092 
head 9.26484 9.60196 -0.160757 
rclavicle 5.08889e-14 3.02153e-14 
rhumerus -36.196 22.7428 -99.0554 
rradius 37.6567 
rwrist -25.4158 
rhand -20.2316 19.67 
rfingers 7.12502 
rthumb 6.11626 -10.2218 
lclavicle 5.08889e-14 3.02153e-14 
lhumerus -51.9297 19.0925 70.1787 
lradius 53.2129 
lwrist -2.35488 
lhand -6.28203 36.1197 
lfingers 7.12502 
lthumb 19.5612 65.1557 
rfemur -72.4903 -11.6442 18.1842 
rtibia 89.0607 
rfoot -8.42185 0.746209 
rtoes 27.8561 
lfemur -55.1176 1.76921 -7.34536 
ltibia 69.8429 
lfoot -7.72593 -24.3419 
ltoes -18.6121 
77
root 6.58213 12.4263 7.9164 -48.9258 -69.0206 43.8211 
lowerback 53.8075 -9.72123 7.4932 
upperback 10.2187 -8.94228 2.11103 
thorax -9.40397 -4.83511 3.0671 
lowerneck -16.3305 13.7394 -11.3993 
upperneck 18.6292 24.8105 -15.3374 
head 9.5119 9.10359 -0.250578 
rclavicle -3.18055e-14 -3.18055e-15 
rhumerus -35.7526 21.6914 -99.7014 
rradius 37.7009 
rwrist -25.1061 
rhand -20.8835 21.8988 
rfingers 7.12502 
rthumb 5.48679 -8.01019 
lclavicle -3.18055e-14 -3.18055e-15 
lhumerus -50.329 17.4517 71.2158 
lradius 53.4278 
lwrist -2.07642 
lhand -5.83776 35.5026 
lfingers 7.12502 
lthumb 19.9883 64.4945 
rfemur -72.8173 -12.2012 17.8711 
rtibia 89.0724 
rfoot -8.14067 1.86922 
rtoes 28.6857 
lfemur -55.7915 2.01599 -7.62943 
ltibia 70.5676 
lfoot -8.58948 -24.1386 
ltoes -22.1641 
78
root 6.65794 12.4447 8.1053 -49.9827 -69.3673 44.8071 
lowerback 52.8898 -9.29225 7.54162 
upperback 11.2417 -8.64584 2.55243 
thorax -8.10052 -4.78159 3.23409 
lowerneck -16.8436 13.411 -10.4645 
upperneck 18.5529 24.4436 -16.0548 
head 9.78699 8.88123 -0.578508 
rclavicle 4.92986e-14 -7.63333e-14 
rhumerus -34.8863 22.3449 -99.4623 
rradius 38.6 
rwrist -24.533 
rhand -22.8034 24.8158 
rfingers 7.12502 
rthumb 3.63291 -5.13302 
lclavicle 4.92986e-14 -7.63333e-14 
lhumerus -48.1755 16.8935 73.0892 
lradius 53.7444 
lwrist -1.57798 
lhand -5.34934 35.2452 
lfingers 7.12502 
lthumb 20.4577 64.1874 
rfemur -72.8684 -12.8646 17.259 
rtibia 88.9086 
rfoot -8.07281 3.04472 
rtoes 27.7533 
lfemur -56.1151 1.85469 -7.96651 
ltibia 71.0221 
lfoot -8.32273 -23.8488 
ltoes -19.9788 
79
root 6.7258 12.4714 8.27905 -51.3997 -69.8365 45.9377 
lowerback 52.8045 -9.336 8.06607 
upperback 11.5472 -8.5256 2.42837 
thorax -7.77642 -4.73381 2.7884 
lowerneck -16.7831 13.464 -9.50331 
upperneck 18.9518 24.4014 -16.0679 
head 10.0252 8.88057 -0.690029 
rclavicle -3.33958e-14 1.89243e-13 
rhumerus -35.125 22.429 -100.106 
rradius 39.325 
rwrist -22.1083 
rhand -25.9209 26.3312 
rfingers 7.12502 
rthumb 0.622137 -3.64761 
lclavicle -3.33958e-14 1.89243e-13 
lhumerus -47.1654 15.8031 74.1609 
lradius 54.1628 
lwrist -1.18577 
lhand -4.75634 35.3696 
lfingers 7.12502 
lthumb 21.0275 64.2496 
rfemur -72.4372 -13.1878 16.6149 
rtibia 88.6278 
rfoot -8.14062 4.09485 
rtoes 25.3763 
lfemur -55.874 1.82876 -8.25245 
ltibia 71.3176 
lfoot -9.0594 -23.6773 
ltoes -22.3757 
80
root 6.79052 12.4877 8.45078 -52.2645 -70.6908 46.5184 
lowerback 52.937 -9.70601 9.20327 
upperback 11.4553 -8.39543 2.1458 
thorax -7.94629 -4.64849 1.96095 
lowerneck -16.5493 12.9349 -9.51494 
upperneck 19.157 23.3908 -14.9235 
head 9.82452 8.53886 -0.492218 
rclavicle -1.59028e-15 -4.6118e-14 
rhumerus -35.5514 21.4461 -100.752 
rradius 39.2789 
rwrist -18.7631 
rhand -30.3387 26.1146 
rfingers 7.12502 
rthumb -3.64455 -3.834 
lclavicle -1.59028e-15 -4.6118e-14 
lhumerus -46.7691 14.7785 74.8495 
lradius 54.4359 
lwrist -1.05036 
lhand -4.28877 35.204 
lfingers 7.12502 
lthumb 21.4766 64.0335 
rfemur -72.0117 -13.3895 16.471 
rtibia 88.3525 
rfoot -8.51391 5.41954 
rtoes 22.7496 
lfemur -55.6754 1.99226 -8.14457 
ltibia 71.6891 
lfoot -10.9275 -23.5262 
ltoes -29.33 
81
root 6.85767 12.4961 8.62803 -52.8018 -71.5009 47.0277 
lowerback 52.9737 -10.1803 10.5963 
upperback 11.0245 -8.17885 1.92041 
thorax -8.47143 -4.51505 1.07888 
lowerneck -15.8078 12.5627 -10.1363 
upperneck 19.6441 22.6262 -13.5426 
head 9.56132 8.29366 -0.140236 
rclavicle 6.67916e-14 -6.52014e-14 
rhumerus -36.0569 19.3785 -100.823 
rradius 38.9692 
rwrist -17.0662 
rhand -34.7599 27.4954 
rfingers 7.12502 
rthumb -7.91299 -2.33645 
lclavicle 6.67916e-14 -6.52014e-14 
lhumerus -46.8721 13.5257 75.6443 
lradius 54.6891 
lwrist -0.788039 
lhand -4.22307 34.8408 
lfingers 7.12502 
lthumb 21.5397 63.663 
rfemur -72.0788 -13.8698 16.3998 
rtibia 88.3338 
rfoot -9.07339 7.23397 
rtoes 19.6661 
lfemur -55.904 2.21686 -8.13416 
ltibia 72.2213 
lfoot -11.923 -23.344 
ltoes -32.3436 
82
root 6.92444 12.5099 8.79367 -53.6552 -71.9327 47.7866 
lowerback 51.4086 -9.65359 9.83202 
upperback 12.3352 -8.34438 2.86451 
thorax -6.70683 -4.69955 2.25921 
lowerneck -16.0681 12.6986 -10.2519 
upperneck 19.0086 23.0068 -14.541 
head 9.53404 8.41124 -0.379784 
rclavicle -1.43125e-14 -1.74931e-14 
rhumerus -34.5528 20.6021 -99.697 
rradius 38.8103 
rwrist -18.5346 
rhand -37.5249 31.0821 
rfingers 7.12502 
rthumb -10.581 1.36841 
lclavicle -1.43125e-14 -1.74931e-14 
lhumerus -45.2377 15.2227 77.3667 
lradius 54.5663 
lwrist -0.863705 
lhand -4.0853 34.5432 
lfingers 7.12502 
lthumb 21.672 63.3503 
rfemur -72.1421 -14.667 15.8775 
rtibia 88.5782 
rfoot -9.64996 9.25928 
rtoes 14.9366 
lfemur -56.1097 2.24854 -8.51265 
ltibia 72.7992 
lfoot -12.0569 -23.092 
ltoes -32.0262 
83
root 6.99213 12.5162 8.94963 -54.6592 -72.2784 48.5167 
lowerback 50.5912 -9.54518 9.68863 
upperback 12.9786 -8.51543 3.25845 
thorax -5.83932 -4.83488 2.69275 
lowerneck -16.0431 12.7961 -9.48122 
upperneck 18.8447 23.1526 -15.4311 
head 9.69236 8.44559 -0.729957 
rclavicle 5.88403e-14 -1.00187e-13 
rhumerus -33.002 18.0597 -98.232 
rradius 37.8047 
rwrist -17.9653 
rhand -38.0884 35.6215 
rfingers 7.12502 
rthumb -11.1245 5.9364 
lclavicle 5.88403e-14 -1.00187e-13 
lhumerus -44.2691 15.6733 78.6725 
lradius 54.3876 
lwrist -0.406257 
lhand -4.08733 34.5858 
lfingers 7.12502 
lthumb 21.6701 63.3931 
rfemur -72.0371 -15.5337 15.2373 
rtibia 88.893 
rfoot -10.2477 11.443 
rtoes 7.48982 
lfemur -56.265 2.12915 -8.88976 
ltibia 73.4268 
lfoot -12.1218 -22.6526 
ltoes -31.412 
84
root 7.0636 12.5148 9.09446 -55.6234 -72.7745 49.4029 
lowerback 49.9611 -9.55423 10.3644 
upperback 13.1087 -8.31668 3.20697 
thorax -5.63766 -4.72099 2.20854 
lowerneck -15.4411 12.6837 -7.73395 
upperneck 18.9419 22.81 -16.5716 
head 9.95621 8.28857 -1.38867 
rclavicle -9.85972e-14 7.79236e-14 
rhumerus -32.9482 15.1581 -97.3835 
rradius 38.0271 
rwrist -17.1906 
rhand -38.9496 38.9583 
rfingers 7.12502 
rthumb -11.955 9.31968 
lclavicle -9.85972e-14 7.79236e-14 
lhumerus -43.8281 14.3698 79.6462 
lradius 54.3137 
lwrist 0.664222 
lhand -4.25833 34.9068 
lfingers 7.12502 
lthumb 21.5059 63.7329 
rfemur -72.2775 -16.0721 14.6125 
rtibia 89.4527 
rfoot -10.4535 13.6049 
rtoes 0.190022 
lfemur -56.7381 2.29604 -9.11397 
ltibia 74.1021 
lfoot -11.941 -22.1312 
ltoes -29.9338 
85
root 7.14554 12.521 9.22975 -55.606 -73.9081 49.5345 
lowerback 49.1137 -9.54176 11.8602 
upperback 13.0744 -7.70548 3.11944 
thorax -5.58126 -4.38141 1.16393 
lowerneck -15.758 11.9766 -8.51781 
upperneck 20.377 21.5475 -13.2752 
head 9.90201 7.8554 -0.379695 
rclavicle 1.08139e-13 -7.63333e-14 
rhumerus -32.7185 11.0846 -96.5513 
rradius 37.7485 
rwrist -13.7062 
rhand -40.6722 40.9543 
rfingers 7.12502 
rthumb -13.6157 11.4196 
lclavicle 1.08139e-13 -7.63333e-14 
lhumerus -43.4837 12.4633 80.4454 
lradius 54.0153 
lwrist 1.29205 
lhand -4.20872 34.8884 
lfingers 7.12502 
lthumb 21.5535 63.7091 
rfemur -72.7308 -16.0475 14.566 
rtibia 90.3381 
rfoot -10.5002 14.8659 
rtoes -6.36305 
lfemur -57.4117 2.81434 -8.57281 
ltibia 74.7155 
lfoot -11.6711 -21.3983 
ltoes -28.236 
